HIERARCHY
ROOT hip
{
  OFFSET 0 0 0
  CHANNELS 6 Xposition Yposition Zposition Zrotation Yrotation Xrotation
  JOINT abdomen
  {
    OFFSET 0 20.6881 -0.73152
    CHANNELS 3 Zrotation Xrotation Yrotation
    JOINT chest
    {
      OFFSET 0 11.7043 -0.48768
      CHANNELS 3 Zrotation Xrotation Yrotation
      JOINT neck
      {
        OFFSET 0 22.1894 -2.19456
        CHANNELS 3 Zrotation Xrotation Yrotation
        JOINT head
        {
          OFFSET -0.24384 7.07133 1.2192
          CHANNELS 3 Zrotation Xrotation Yrotation
          JOINT leftEye
          {
            OFFSET 4.14528 8.04674 8.04672
            CHANNELS 3 Zrotation Xrotation Yrotation
            End Site
            {
              OFFSET 1 0 0
            }
          }
          JOINT rightEye
          {
            OFFSET -3.6576 8.04674 8.04672
            CHANNELS 3 Zrotation Xrotation Yrotation
            End Site
            {
              OFFSET 1 0 0
            }
          }
        }
      }
      JOINT rCollar
      {
        OFFSET -2.68224 19.2634 -4.8768
        CHANNELS 3 Zrotation Xrotation Yrotation
        JOINT rShldr
        {
          OFFSET -8.77824 -1.95073 1.46304
          CHANNELS 3 Zrotation Xrotation Yrotation
          JOINT rForeArm
          {
            OFFSET -28.1742 -1.7115 0.48768
            CHANNELS 3 Zrotation Xrotation Yrotation
            JOINT rHand
            {
              OFFSET -22.5879 0.773209 7.07136
              CHANNELS 3 Zrotation Xrotation Yrotation
              JOINT rThumb1
              {
                OFFSET -1.2192 -0.487915 3.41376
                CHANNELS 3 Zrotation Xrotation Yrotation
                JOINT rThumb2
                {
                  OFFSET -3.37035 -0.52449 3.41376
                  CHANNELS 3 Zrotation Xrotation Yrotation
                  End Site
                  {
                    OFFSET -1.78271 -1.18214 1.43049
                  }
                }
              }
              JOINT rIndex1
              {
                OFFSET -7.75947 0.938293 5.60832
                CHANNELS 3 Zrotation Xrotation Yrotation
                JOINT rIndex2
                {
                  OFFSET -2.54057 -0.884171 1.56538
                  CHANNELS 3 Zrotation Xrotation Yrotation
                  End Site
                  {
                    OFFSET -1.62519 -0.234802 1.16502
                  }
                }
              }
              JOINT rMid1
              {
                OFFSET -8.24714 1.18213 3.41376
                CHANNELS 3 Zrotation Xrotation Yrotation
                JOINT rMid2
                {
                  OFFSET -3.10165 -0.590103 1.0647
                  CHANNELS 3 Zrotation Xrotation Yrotation
                  End Site
                  {
                    OFFSET -2.48547 -0.328903 0.83742
                  }
                }
              }
              JOINT rRing1
              {
                OFFSET -8.82822 0.546677 1.51678
                CHANNELS 3 Zrotation Xrotation Yrotation
                JOINT rRing2
                {
                  OFFSET -2.60934 -0.819778 -0.0198488
                  CHANNELS 3 Zrotation Xrotation Yrotation
                  End Site
                  {
                    OFFSET -2.33842 -0.294052 0.168128
                  }
                }
              }
              JOINT rPinky1
              {
                OFFSET -8.27202 -0.0477905 -0.4584
                CHANNELS 3 Zrotation Xrotation Yrotation
                JOINT rPinky2
                {
                  OFFSET -1.82734 -0.647385 -0.700984
                  CHANNELS 3 Zrotation Xrotation Yrotation
                  End Site
                  {
                    OFFSET -1.69225 -0.51767 -0.607171
                  }
                }
              }
            }
          }
        }
      }
      JOINT lCollar
      {
        OFFSET 2.68224 19.2634 -4.8768
        CHANNELS 3 Zrotation Xrotation Yrotation
        JOINT lShldr
        {
          OFFSET 8.77824 -1.95073 1.46304
          CHANNELS 3 Zrotation Xrotation Yrotation
          JOINT lForeArm
          {
            OFFSET 28.1742 -1.7115 0.48768
            CHANNELS 3 Zrotation Xrotation Yrotation
            JOINT lHand
            {
              OFFSET 22.5879 0.773209 7.07136
              CHANNELS 3 Zrotation Xrotation Yrotation
              JOINT lThumb1
              {
                OFFSET 1.2192 -0.487915 3.41376
                CHANNELS 3 Zrotation Xrotation Yrotation
                JOINT lThumb2
                {
                  OFFSET 3.37035 -0.52449 3.41376
                  CHANNELS 3 Zrotation Xrotation Yrotation
                  End Site
                  {
                    OFFSET 1.78271 -1.18214 1.43049
                  }
                }
              }
              JOINT lIndex1
              {
                OFFSET 7.75947 0.938293 5.60832
                CHANNELS 3 Zrotation Xrotation Yrotation
                JOINT lIndex2
                {
                  OFFSET 2.54057 -0.884171 1.56538
                  CHANNELS 3 Zrotation Xrotation Yrotation
                  End Site
                  {
                    OFFSET 1.62519 -0.234802 1.16502
                  }
                }
              }
              JOINT lMid1
              {
                OFFSET 8.24714 1.18213 3.41376
                CHANNELS 3 Zrotation Xrotation Yrotation
                JOINT lMid2
                {
                  OFFSET 3.10165 -0.590103 1.0647
                  CHANNELS 3 Zrotation Xrotation Yrotation
                  End Site
                  {
                    OFFSET 2.48547 -0.328903 0.83742
                  }
                }
              }
              JOINT lRing1
              {
                OFFSET 8.82822 0.546677 1.51678
                CHANNELS 3 Zrotation Xrotation Yrotation
                JOINT lRing2
                {
                  OFFSET 2.60934 -0.819778 -0.0198488
                  CHANNELS 3 Zrotation Xrotation Yrotation
                  End Site
                  {
                    OFFSET 2.33842 -0.294052 0.168128
                  }
                }
              }
              JOINT lPinky1
              {
                OFFSET 8.27202 -0.0477905 -0.4584
                CHANNELS 3 Zrotation Xrotation Yrotation
                JOINT lPinky2
                {
                  OFFSET 1.82734 -0.647385 -0.700984
                  CHANNELS 3 Zrotation Xrotation Yrotation
                  End Site
                  {
                    OFFSET 1.69225 -0.51767 -0.607171
                  }
                }
              }
            }
          }
        }
      }
    }
  }
  JOINT rButtock
  {
    OFFSET -8.77824 4.35084 1.2192
    CHANNELS 3 Zrotation Xrotation Yrotation
    JOINT rThigh
    {
      OFFSET 0 -1.70687 -2.19456
      CHANNELS 3 Zrotation Xrotation Yrotation
      JOINT rShin
      {
        OFFSET 0 -36.8199 0.73152
        CHANNELS 3 Zrotation Xrotation Yrotation
        JOINT rFoot
        {
          OFFSET 0.73152 -45.1104 -5.12064
          CHANNELS 3 Zrotation Xrotation Yrotation
          End Site
          {
            OFFSET -1.1221 -3.69964 12.103
          }
        }
      }
    }
  }
  JOINT lButtock
  {
    OFFSET 8.77824 4.35084 1.2192
    CHANNELS 3 Zrotation Xrotation Yrotation
    JOINT lThigh
    {
      OFFSET 0 -1.70687 -2.19456
      CHANNELS 3 Zrotation Xrotation Yrotation
      JOINT lShin
      {
        OFFSET 0 -36.8199 0.73152
        CHANNELS 3 Zrotation Xrotation Yrotation
        JOINT lFoot
        {
          OFFSET -0.73152 -45.1104 -5.12064
          CHANNELS 3 Zrotation Xrotation Yrotation
          End Site
          {
            OFFSET 1.1221 -3.69964 12.103
          }
        }
      }
    }
  }
}
MOTION
Frames:	9
Frame Time:	0.00833333
1.22874 83.9933 71.0074 0.0 0.0 0.0 -1.70621 -0.002545 -0.0464501 -0.47056 0.0024273 -0.0814847 -8.5735e-16 -1.59028e-15 -1.73937e-16 -2.74261e-15 3.18055e-15 -4.2397e-16 -0.0 0.0 0.0 -0.0 0.0 0.0 -4.98081e-16 3.90193e-17 1.98785e-16 -9.18777e-15 7.0817e-16 -7.95139e-16 -1.85615e-13 8.52786e-14 -2.8625e-14 -2.17633e-12 8.5055e-14 -3.27597e-13 -5.12941e-12 3.71494e-13 -7.4743e-13 -8.87136e-12 6.39292e-13 -1.28017e-12 -5.12387e-12 3.71727e-13 -7.50611e-13 7.73091 5.47488 0.417314 -5.13113e-12 3.71131e-13 -7.41069e-13 2.90554 0.965183 0.102902 -5.12788e-12 3.7123e-13 -7.41069e-13 10.2786 0.731801 0.0259123 -5.14097e-12 3.74113e-13 -7.28347e-13 2.22167 -0.733487 -0.20892 -5.95253e-16 3.59132e-17 -1.98785e-16 -1.3477e-14 9.13167e-16 -2.38542e-15 -1.95306e-13 -3.00165e-14 -2.8625e-14 -2.19141e-12 2.03928e-13 -3.08514e-13 -5.17462e-12 3.75184e-13 -7.41069e-13 -8.93259e-12 6.45653e-13 -1.28256e-12 -5.17834e-12 3.76101e-13 -7.31528e-13 -7.73091 5.47488 -0.417314 -5.17427e-12 3.74908e-13 -7.41069e-13 -2.90554 0.965183 -0.102902 -5.1776e-12 3.75305e-13 -7.43455e-13 -10.2786 0.731801 -0.0259123 -5.16999e-12 3.76498e-13 -7.53791e-13 -2.22167 -0.733487 0.20892 -2.03217e-16 0.0 -3.88251e-19 -0.810681 -1.92439 -0.00361188 -0.00901481 -2.07859 -0.0743073 -0.483784 3.99775 0.136126 2.03217e-16 0.0 3.88251e-19 -1.78657 -6.8542 0.170484 -0.00323756 6.85137 -0.0863809 0.513122 -0.00230552 -0.0582033
-0.606834 82.4232 64.0492 177.304 -3.479 -170.81 -2.52011 -0.712456 -0.902336 0.656477 -0.186721 -0.321791 -2.48416 0.447292 -0.735367 0.572884 7.07771 1.41827 -0.0 0.0 0.0 -0.0 0.0 0.0 4.66043e-14 -4.76067e-14 4.50022e-15 20.8254 4.93754 -0.365325 -4.98469 -2.44134 7.58453 0.0507491 5.0006 0.693156 -3.6755e-10 2.19218e-10 1.13441e-11 -6.34531e-10 3.75219e-10 2.58995e-11 -3.67543e-10 2.19218e-10 1.13428e-11 7.73091 5.47488 0.417314 -3.67549e-10 2.19218e-10 1.13485e-11 2.90554 0.965183 0.102902 -3.67546e-10 2.19217e-10 1.13476e-11 10.2786 0.731801 0.0259123 -3.67559e-10 2.19219e-10 1.13595e-11 2.22167 -0.733487 -0.20892 4.64968e-14 -4.76067e-14 4.15041e-15 -22.0617 4.82225 0.157707 4.27729 -1.94997 -6.668 -0.00307512 1.23013 -0.17274 -3.52147e-10 -6.38543e-10 -5.09061e-10 -6.10775e-10 -1.1052e-09 -8.78148e-10 -3.52152e-10 -6.38542e-10 -5.09049e-10 -7.73091 5.47488 -0.417314 -3.52147e-10 -6.38545e-10 -5.09061e-10 -2.90554 0.965183 -0.102902 -3.52152e-10 -6.38544e-10 -5.09063e-10 -10.2786 0.731801 -0.0259123 -3.52143e-10 -6.38543e-10 -5.09073e-10 -2.22167 -0.733487 0.20892 -2.03217e-16 0.0 -3.88251e-19 -0.696071 -7.30303 1.00747 0.000768771 6.58584 0.0661388 -0.539304 -1.14543 -0.576571 2.03217e-16 0.0 3.88251e-19 -2.69414 -10.3242 -1.66317 -0.0199408 12.0876 -0.16586 0.591054 -3.22975 0.496763
-0.608863 82.4236 64.0491 177.305 -3.5204 -170.812 -3.40284 -1.46199 -1.80776 1.84593 -0.387505 -0.576057 -5.09796 0.918274 -1.51321 0.788037 14.548 2.99072 -0.0 0.0 0.0 -0.0 0.0 0.0 9.97838e-14 -1.05938e-13 8.19055e-15 42.9102 10.1563 -0.760967 -9.5577 -4.87943 15.646 -0.0291168 10.286 1.44391 -7.78449e-10 4.5591e-10 3.30561e-11 -1.3438e-09 7.80095e-10 7.05282e-11 -7.78442e-10 4.55911e-10 3.30569e-11 7.73091 5.47488 0.417314 -7.78446e-10 4.55911e-10 3.30585e-11 2.90554 0.965183 0.102902 -7.78443e-10 4.5591e-10 3.30566e-11 10.2786 0.731801 0.0259123 -7.78456e-10 4.55911e-10 3.30676e-11 2.22167 -0.733487 -0.20892 9.96659e-14 -1.05934e-13 7.89548e-15 -45.4134 9.92065 0.327985 8.30986 -3.92362 -13.7428 0.00174758 2.53128 -0.355723 -7.36618e-10 -1.35672e-09 -1.10735e-09 -1.27781e-09 -2.34824e-09 -1.91035e-09 -7.36625e-10 -1.35672e-09 -1.10733e-09 -7.73091 5.47488 -0.417314 -7.36619e-10 -1.35673e-09 -1.10735e-09 -2.90554 0.965183 -0.102902 -7.36625e-10 -1.35673e-09 -1.10735e-09 -10.2786 0.731801 -0.0259123 -7.36615e-10 -1.35672e-09 -1.10736e-09 -2.22167 -0.733487 0.20892 -2.03217e-16 0.0 -3.88251e-19 -0.363123 -12.982 2.11341 -0.0363684 15.7443 0.221982 -0.737722 -6.5814 -1.3386 2.03217e-16 0.0 3.88251e-19 -3.90189 -13.9741 -3.65557 -0.020953 17.6241 -0.254954 0.742006 -6.64088 1.09027
-0.620862 82.4249 64.0487 177.258 -3.5465 -170.814 -4.21155 -2.13032 -2.61571 2.90579 -0.56497 -0.802438 -7.41803 1.34099 -2.20664 0.603838 21.1791 4.52886 -0.0 0.0 0.0 -0.0 0.0 0.0 1.40809e-13 -1.42898e-13 1.31031e-14 62.6705 14.8102 -1.12943 -13.0602 -6.81177 22.9036 -0.221529 14.9929 2.14459 -1.09239e-09 6.5691e-10 3.55271e-11 -1.88585e-09 1.12438e-09 8.02588e-11 -1.09238e-09 6.56911e-10 3.55296e-11 7.73091 5.47488 0.417314 -1.09239e-09 6.56911e-10 3.55278e-11 2.90554 0.965183 0.102902 -1.09238e-09 6.5691e-10 3.5525e-11 10.2786 0.731801 0.0259123 -1.0924e-09 6.5691e-10 3.55353e-11 2.22167 -0.733487 -0.20892 1.40681e-13 -1.42892e-13 1.28488e-14 -66.267 14.4663 0.486885 11.4957 -5.53365 -20.09 0.0130659 3.69026 -0.519177 -1.04609e-09 -1.91638e-09 -1.5257e-09 -1.81446e-09 -3.31688e-09 -2.63188e-09 -1.0461e-09 -1.91638e-09 -1.52568e-09 -7.73091 5.47488 -0.417314 -1.04609e-09 -1.91638e-09 -1.5257e-09 -2.90554 0.965183 -0.102902 -1.0461e-09 -1.91638e-09 -1.5257e-09 -10.2786 0.731801 -0.0259123 -1.04609e-09 -1.91638e-09 -1.52571e-09 -2.22167 -0.733487 0.20892 -2.03217e-16 0.0 -3.88251e-19 0.128236 -18.038 3.16061 -0.115562 23.9143 0.378082 -1.03928 -11.4249 -2.04142 2.03217e-16 0.0 3.88251e-19 -5.20342 -17.2022 -5.4937 -0.00606168 22.5599 -0.341125 0.936711 -9.68118 1.62751
-0.621869 82.4045 64.044 177.255 -3.5485 -170.84 -4.79034 -2.59752 -3.17844 3.64507 -0.684183 -0.959074 -9.02792 1.64389 -2.68851 0.229718 25.7638 5.72125 -0.0 0.0 0.0 -0.0 0.0 0.0 1.51448e-13 -1.26431e-13 2.10712e-14 76.4803 18.0539 -1.3981 -15.2036 -7.96772 28.0085 -0.427294 18.2617 2.65806 -1.16394e-09 7.68676e-10 -1.01046e-11 -2.00985e-09 1.31719e-09 2.74402e-12 -1.16393e-09 7.68678e-10 -1.01014e-11 7.73091 5.47488 0.417314 -1.16393e-09 7.68678e-10 -1.01046e-11 2.90554 0.965183 0.102902 -1.16393e-09 7.68677e-10 -1.01078e-11 10.2786 0.731801 0.0259123 -1.16394e-09 7.68676e-10 -1.00983e-11 2.22167 -0.733487 -0.20892 1.51311e-13 -1.26424e-13 2.08227e-14 -80.8169 17.6305 0.604289 13.4972 -6.53622 -24.5361 0.0248333 4.49394 -0.632894 -1.16807e-09 -2.07973e-09 -1.49422e-09 -2.02513e-09 -3.59949e-09 -2.57672e-09 -1.16808e-09 -2.07973e-09 -1.4942e-09 -7.73091 5.47488 -0.417314 -1.16807e-09 -2.07973e-09 -1.49422e-09 -2.90554 0.965183 -0.102902 -1.16808e-09 -2.07973e-09 -1.49421e-09 -10.2786 0.731801 -0.0259123 -1.16807e-09 -2.07973e-09 -1.49422e-09 -2.22167 -0.733487 0.20892 -2.03217e-16 0.0 -3.88251e-19 0.587255 -21.5571 3.94115 -0.201404 29.6136 0.503396 -1.32209 -14.7946 -2.5514 2.03217e-16 0.0 3.88251e-19 -6.24029 -19.4305 -6.80925 0.0140286 25.9946 -0.406227 1.1054 -11.7978 2.00403
-0.610568 82.352 64.0435 177.313 -3.5677 -170.854 -5.03419 -2.78605 -3.39562 3.94031 -0.721227 -1.01701 -9.65536 1.78158 -2.8732 0.000367214 27.5215 6.2308 -0.0 0.0 0.0 -0.0 0.0 0.0 1.12531e-13 -1.85793e-14 3.12682e-14 81.8926 19.3294 -1.5041 -15.9826 -8.37089 30.0213 -0.523488 19.5164 2.86265 -8.26369e-10 7.24989e-10 -1.33286e-10 -1.42823e-09 1.24589e-09 -2.15699e-10 -8.26363e-10 7.24991e-10 -1.33283e-10 7.73091 5.47488 0.417314 -8.26366e-10 7.24992e-10 -1.33285e-10 2.90554 0.965183 0.102902 -8.2636e-10 7.2499e-10 -1.33288e-10 10.2786 0.731801 0.0259123 -8.26374e-10 7.2499e-10 -1.33279e-10 2.22167 -0.733487 -0.20892 1.12383e-13 -1.85747e-14 3.09603e-14 -86.5161 18.8615 0.657102 14.2296 -6.89614 -26.2738 0.0301918 4.79913 -0.676175 -9.68869e-10 -1.58427e-09 -7.04011e-10 -1.67741e-09 -2.74175e-09 -1.21155e-09 -9.68878e-10 -1.58427e-09 -7.03991e-10 -7.73091 5.47488 -0.417314 -9.68871e-10 -1.58428e-09 -7.0401e-10 -2.90554 0.965183 -0.102902 -9.68879e-10 -1.58428e-09 -7.04009e-10 -10.2786 0.731801 -0.0259123 -9.68866e-10 -1.58427e-09 -7.04018e-10 -2.22167 -0.733487 0.20892 -2.03217e-16 0.0 -3.88251e-19 0.785032 -22.9355 4.26353 -0.243122 31.8476 0.55755 -1.44753 -16.1013 -2.74996 2.03217e-16 0.0 3.88251e-19 -6.68286 -20.2921 -7.32795 0.0240369 27.3283 -0.432937 1.17674 -12.6274 2.14435
-0.620904 82.3664 64.0528 177.272 -3.5927 -170.831 -5.03383 -2.77582 -3.36574 3.91853 -0.699615 -1.00448 -9.58359 1.80133 -2.84554 -0.0157612 27.2723 6.18875 -0.0 0.0 0.0 -0.0 0.0 0.0 3.85514e-14 1.53757e-13 4.31549e-14 81.2903 19.1993 -1.48684 -15.9021 -8.33154 29.807 -0.509981 19.3347 2.83297 -1.99899e-10 5.71716e-10 -3.11373e-10 -3.48316e-10 9.88417e-10 -5.3391e-10 -1.99895e-10 5.71719e-10 -3.11373e-10 7.73091 5.47488 0.417314 -1.999e-10 5.7172e-10 -3.1137e-10 2.90554 0.965183 0.102902 -1.9989e-10 5.71718e-10 -3.11372e-10 10.2786 0.731801 0.0259123 -1.99906e-10 5.71719e-10 -3.11364e-10 2.22167 -0.733487 -0.20892 3.83901e-14 1.53757e-13 4.27418e-14 -85.8863 18.7116 0.660693 14.1399 -6.85593 -26.065 0.0293632 4.74832 -0.668971 -5.43044e-10 -6.23193e-10 6.21994e-10 -9.35703e-10 -1.07803e-09 1.07873e-09 -5.43051e-10 -6.23192e-10 6.22014e-10 -7.73091 5.47488 -0.417314 -5.43045e-10 -6.23197e-10 6.21995e-10 -2.90554 0.965183 -0.102902 -5.43053e-10 -6.23197e-10 6.21996e-10 -10.2786 0.731801 -0.0259123 -5.4304e-10 -6.23194e-10 6.21989e-10 -2.22167 -0.733487 0.20892 -2.03217e-16 0.0 -3.88251e-19 0.743683 -22.7895 4.23258 -0.238371 31.6068 0.551341 -1.42905 -15.9365 -2.71425 2.03217e-16 0.0 3.88251e-19 -6.6451 -20.1875 -7.25373 0.0223853 27.1614 -0.429597 1.16414 -12.5382 2.11162
-0.630856 82.4033 64.0621 177.223 -3.5802 -170.807 -4.9248 -2.68345 -3.23894 3.76469 -0.655575 -0.965435 -9.23054 1.7708 -2.73397 0.0599823 26.222 5.92169 -0.0 0.0 0.0 -0.0 0.0 0.0 -3.82283e-14 3.2535e-13 5.89956e-14 78.2829 18.5002 -1.41952 -15.4771 -8.1145 28.7003 -0.453688 18.5898 2.7116 4.30514e-10 4.23455e-10 -4.95094e-10 7.38328e-10 7.39739e-10 -8.61974e-10 4.30516e-10 4.23458e-10 -4.95096e-10 7.73091 5.47488 0.417314 4.3051e-10 4.2346e-10 -4.95089e-10 2.90554 0.965183 0.102902 4.30522e-10 4.23458e-10 -4.95091e-10 10.2786 0.731801 0.0259123 4.30506e-10 4.2346e-10 -4.95082e-10 2.22167 -0.733487 -0.20892 -3.83983e-14 3.25345e-13 5.8485e-14 -82.721 18.0087 0.639588 13.7201 -6.65388 -25.0755 0.026121 4.55698 -0.641841 -1.20479e-10 3.5778e-10 1.95601e-09 -1.99619e-10 6.2019e-10 3.38283e-09 -1.20484e-10 3.57782e-10 1.95603e-09 -7.73091 5.47488 -0.417314 -1.20479e-10 3.57778e-10 1.95601e-09 -2.90554 0.965183 -0.102902 -1.20487e-10 3.57779e-10 1.95601e-09 -10.2786 0.731801 -0.0259123 -1.20474e-10 3.57782e-10 1.95601e-09 -2.22167 -0.733487 0.20892 -2.03217e-16 0.0 -3.88251e-19 0.618015 -22.0406 4.05877 -0.215191 30.3872 0.521273 -1.35569 -15.1913 -2.59019 2.03217e-16 0.0 3.88251e-19 -6.40203 -19.7011 -6.91365 0.0160633 26.3931 -0.414136 1.11704 -12.0756 2.00473
-0.626875 82.417 64.0633 177.234 -3.5502 -170.819 -4.84289 -2.62556 -3.16537 3.66381 -0.625331 -0.943803 -9.01374 1.75759 -2.66696 0.10089 25.5755 5.75896 -0.0 0.0 0.0 -0.0 0.0 0.0 -8.55444e-14 4.30969e-13 8.10544e-14 76.48 18.0688 -1.37566 -15.2171 -7.97966 28.0367 -0.422089 18.1549 2.6414 7.7991e-10 3.94802e-10 -6.35176e-10 1.34014e-09 6.94811e-10 -1.10997e-09 7.79912e-10 3.94805e-10 -6.35179e-10 7.73091 5.47488 0.417314 7.79904e-10 3.94807e-10 -6.35169e-10 2.90554 0.965183 0.102902 7.79916e-10 3.94806e-10 -6.35171e-10 10.2786 0.731801 0.0259123 7.799e-10 3.94808e-10 -6.35163e-10 2.22167 -0.733487 -0.20892 -8.57142e-14 4.30961e-13 8.05078e-14 -80.8145 17.5807 0.618642 13.4587 -6.52583 -24.4713 0.0242454 4.44057 -0.625347 6.89449e-11 9.12921e-10 2.77025e-09 1.31238e-10 1.58143e-09 4.78942e-09 6.89413e-11 9.12923e-10 2.77027e-09 -7.73091 5.47488 -0.417314 6.89459e-11 9.1292e-10 2.77026e-09 -2.90554 0.965183 -0.102902 6.89378e-11 9.12921e-10 2.77026e-09 -10.2786 0.731801 -0.0259123 6.89507e-11 9.12924e-10 2.77025e-09 -2.22167 -0.733487 0.20892 -2.03217e-16 0.0 -3.88251e-19 0.56567 -21.6101 3.95395 -0.202303 29.6847 0.504309 -1.31682 -14.7571 -2.52394 2.03217e-16 0.0 3.88251e-19 -6.23091 -19.4169 -6.63572 0.0122277 25.923 -0.404576 1.08514 -11.7847 1.92267
